# xmcd
#
# Track frame offsets:
# 150
# 20395
# 30260
# 41800
# 52887
# 69955
# 79070
# 90705
# 105427
# 114457
# 127580
# 139262
# 153655
# 166977
# 178127
# 188895
# 199532
# 212687
# 226585
# 233740
#
# Disc length: 3324 seconds
#
#
# Revision: 0
# Processed by: cddbd v1.5.1PL0 Copyright (c) Steve Scherf et al.
# Submitted via: FreeRIP 2.90 
#
DISCID=f50cfa14
DTITLE=Glenn Miller - Raros Collection - Soh O Melhor De
DYEAR=2004
DGENRE=Blues
TTITLE0=Moonlight Serenade
TTITLE1=Over The Rainbow
TTITLE2=In The Mood
TTITLE3=Chattanooga Choo Choo
TTITLE4=Tuxedo Junction
TTITLE5=Serenade In Blue
TTITLE6=Little Brown Jug
TTITLE7=String Of Pearls
TTITLE8=Sunrise Serenade
TTITLE9=Pennsylvania 6-5000
TTITLE10=I Got A Girl In Kalamazoo
TTITLE11=Jeep Jockey Jump
TTITLE12=Caribbean Clipper
TTITLE13=L.O.V.E.R.
TTITLE14=Sun Valley Jump
TTITLE15=Danny Boy
TTITLE16=Seven Or Five
TTITLE17=My Love For You
TTITLE18=Music Makers
TTITLE19=Falling Leaves
EXTD=
EXTT0=
EXTT1=
EXTT2=
EXTT3=
EXTT4=
EXTT5=
EXTT6=
EXTT7=
EXTT8=
EXTT9=
EXTT10=
EXTT11=
EXTT12=
EXTT13=
EXTT14=
EXTT15=
EXTT16=
EXTT17=
EXTT18=
EXTT19=
PLAYORDER=
